<?xml version="1.0" encoding="UTF-8" standalone="no"?>
<svg xmlns="http://www.w3.org/2000/svg" xmlns:xlink="http://www.w3.org/1999/xlink" contentStyleType="text/css" height="543px" preserveAspectRatio="none" style="width:555px;height:543px;background:#FFFFFF;" version="1.1" viewBox="0 0 555 543" width="555px" zoomAndPan="magnify"><defs/><g><rect fill="none" height="20.9531" style="stroke:none;stroke-width:1.0;" width="522" x="15" y="12.7451"/><ellipse cx="116.75" cy="48.6982" fill="#222222" rx="10" ry="10" style="stroke:#222222;stroke-width:1.0;"/><rect fill="#F1F1F1" height="33.9688" rx="12.5" ry="12.5" style="stroke:#181818;stroke-width:0.5;" width="129" x="52.25" y="78.6982"/><text fill="#000000" font-family="sans-serif" font-size="12" lengthAdjust="spacing" textLength="109" x="62.25" y="99.8369">Auftrag annehmen</text><rect fill="#F1F1F1" height="33.9688" rx="12.5" ry="12.5" style="stroke:#181818;stroke-width:0.5;" width="111" x="61.25" y="132.667"/><text fill="#000000" font-family="sans-serif" font-size="12" lengthAdjust="spacing" textLength="91" x="71.25" y="153.8057">Lager anfragen</text><polygon fill="#F1F1F1" points="116.75,186.6357,116.75,186.6357,128.75,198.6357,116.75,210.6357,116.75,210.6357,104.75,198.6357,116.75,186.6357" style="stroke:#181818;stroke-width:0.5;"/><text fill="#000000" font-family="sans-serif" font-size="11" lengthAdjust="spacing" textLength="74" x="120.75" y="220.8462">nicht vorr채tig</text><text fill="#000000" font-family="sans-serif" font-size="11" lengthAdjust="spacing" textLength="43" x="61.75" y="196.0415">vorr채tig</text><polygon fill="#F1F1F1" points="116.75,357.9756,128.75,369.9756,116.75,381.9756,104.75,369.9756,116.75,357.9756" style="stroke:#181818;stroke-width:0.5;"/><line style="stroke:#000000;stroke-width:1.5;" x1="15" x2="15" y1="12.7451" y2="531.9131"/><rect fill="#F1F1F1" height="33.9688" rx="12.5" ry="12.5" style="stroke:#181818;stroke-width:0.5;" width="125" x="216" y="235.0381"/><text fill="#000000" font-family="sans-serif" font-size="12" lengthAdjust="spacing" textLength="105" x="226" y="256.1768">Produkt bestellen</text><rect fill="#F1F1F1" height="33.9688" rx="12.5" ry="12.5" style="stroke:#181818;stroke-width:0.5;" width="125" x="216" y="304.0068"/><text fill="#000000" font-family="sans-serif" font-size="12" lengthAdjust="spacing" textLength="105" x="226" y="325.1455">Produkt einlagern</text><line style="stroke:#000000;stroke-width:1.5;" x1="210" x2="210" y1="12.7451" y2="531.9131"/><rect fill="#F1F1F1" height="33.9688" rx="12.5" ry="12.5" style="stroke:#181818;stroke-width:0.5;" width="180" x="351" y="401.9756"/><text fill="#000000" font-family="sans-serif" font-size="12" lengthAdjust="spacing" textLength="160" x="361" y="423.1143">Produkt aus Lager nehmen</text><rect fill="#F1F1F1" height="33.9688" rx="12.5" ry="12.5" style="stroke:#181818;stroke-width:0.5;" width="70" x="406" y="455.9443"/><text fill="#000000" font-family="sans-serif" font-size="12" lengthAdjust="spacing" textLength="50" x="416" y="477.083">Versand</text><ellipse cx="441" cy="520.9131" fill="none" rx="11" ry="11" style="stroke:#222222;stroke-width:1.0;"/><ellipse cx="441" cy="520.9131" fill="#222222" rx="6" ry="6" style="stroke:#111111;stroke-width:1.0;"/><line style="stroke:#000000;stroke-width:1.5;" x1="345" x2="345" y1="12.7451" y2="531.9131"/><line style="stroke:#000000;stroke-width:1.5;" x1="535" x2="535" y1="12.7451" y2="531.9131"/><line style="stroke:#181818;stroke-width:1.0;" x1="116.75" x2="116.75" y1="58.6982" y2="78.6982"/><polygon fill="#181818" points="112.75,68.6982,116.75,78.6982,120.75,68.6982,116.75,72.6982" style="stroke:#181818;stroke-width:1.0;"/><line style="stroke:#181818;stroke-width:1.0;" x1="116.75" x2="116.75" y1="112.667" y2="132.667"/><polygon fill="#181818" points="112.75,122.667,116.75,132.667,120.75,122.667,116.75,126.667" style="stroke:#181818;stroke-width:1.0;"/><line style="stroke:#181818;stroke-width:1.0;" x1="104.75" x2="44.25" y1="198.6357" y2="198.6357"/><polygon fill="#181818" points="40.25,276.5068,44.25,286.5068,48.25,276.5068,44.25,280.5068" style="stroke:#181818;stroke-width:1.0;"/><line style="stroke:#181818;stroke-width:1.0;" x1="44.25" x2="44.25" y1="198.6357" y2="369.9756"/><line style="stroke:#181818;stroke-width:1.0;" x1="44.25" x2="104.75" y1="369.9756" y2="369.9756"/><polygon fill="#181818" points="94.75,365.9756,104.75,369.9756,94.75,373.9756,98.75,369.9756" style="stroke:#181818;stroke-width:1.0;"/><line style="stroke:#181818;stroke-width:1.0;" x1="116.75" x2="116.75" y1="166.6357" y2="186.6357"/><polygon fill="#181818" points="112.75,176.6357,116.75,186.6357,120.75,176.6357,116.75,180.6357" style="stroke:#181818;stroke-width:1.0;"/><line style="stroke:#181818;stroke-width:1.0;" x1="278.5" x2="278.5" y1="269.0068" y2="304.0068"/><polygon fill="#181818" points="274.5,294.0068,278.5,304.0068,282.5,294.0068,278.5,298.0068" style="stroke:#181818;stroke-width:1.0;"/><line style="stroke:#181818;stroke-width:1.0;" x1="441" x2="441" y1="435.9443" y2="455.9443"/><polygon fill="#181818" points="437,445.9443,441,455.9443,445,445.9443,441,449.9443" style="stroke:#181818;stroke-width:1.0;"/><line style="stroke:#181818;stroke-width:1.0;" x1="441" x2="441" y1="489.9131" y2="509.9131"/><polygon fill="#181818" points="437,499.9131,441,509.9131,445,499.9131,441,503.9131" style="stroke:#181818;stroke-width:1.0;"/><line style="stroke:#181818;stroke-width:1.0;" x1="116.75" x2="116.75" y1="210.6357" y2="222.8369"/><line style="stroke:#181818;stroke-width:1.0;" x1="116.75" x2="278.5" y1="222.8369" y2="222.8369"/><line style="stroke:#181818;stroke-width:1.0;" x1="278.5" x2="278.5" y1="222.8369" y2="235.0381"/><polygon fill="#181818" points="274.5,225.0381,278.5,235.0381,282.5,225.0381,278.5,229.0381" style="stroke:#181818;stroke-width:1.0;"/><line style="stroke:#181818;stroke-width:1.0;" x1="278.5" x2="278.5" y1="337.9756" y2="345.7744"/><line style="stroke:#181818;stroke-width:1.0;" x1="278.5" x2="116.75" y1="345.7744" y2="345.7744"/><line style="stroke:#181818;stroke-width:1.0;" x1="116.75" x2="116.75" y1="345.7744" y2="357.9756"/><polygon fill="#181818" points="112.75,347.9756,116.75,357.9756,120.75,347.9756,116.75,351.9756" style="stroke:#181818;stroke-width:1.0;"/><line style="stroke:#181818;stroke-width:1.0;" x1="116.75" x2="116.75" y1="381.9756" y2="386.9756"/><line style="stroke:#181818;stroke-width:1.0;" x1="116.75" x2="441" y1="386.9756" y2="386.9756"/><line style="stroke:#181818;stroke-width:1.0;" x1="441" x2="441" y1="386.9756" y2="401.9756"/><polygon fill="#181818" points="437,391.9756,441,401.9756,445,391.9756,441,395.9756" style="stroke:#181818;stroke-width:1.0;"/><text fill="#000000" font-family="sans-serif" font-size="18" lengthAdjust="spacing" textLength="185" x="20" y="29.4531">Auftragsverwaltung</text><text fill="#000000" font-family="sans-serif" font-size="18" lengthAdjust="spacing" textLength="101" x="227" y="29.4531">Produktion</text><text fill="#000000" font-family="sans-serif" font-size="18" lengthAdjust="spacing" textLength="76" x="402" y="29.4531">Versand</text><!--MD5=[c348474eae0f5da2107ebe3f12540308]
@startuml
|Auftragsverwaltung|
start
  :Auftrag annehmen;
  :Lager anfragen;
  if () then (nicht vorr채tig)
    |Produktion|
    :Produkt bestellen;
    :Produkt einlagern;
  else (vorr채tig)
  endif
  |Versand|
    :Produkt aus Lager nehmen;
    :Versand;
    stop;
@enduml

PlantUML version 1.2022.14beta7(Unknown compile time)
(GPL source distribution)
Java Runtime: Java(TM) SE Runtime Environment
JVM: Java HotSpot(TM) 64-Bit Server VM
Default Encoding: UTF-8
Language: en
Country: US
--></g></svg>