<?xml version="1.0" encoding="UTF-8" standalone="no"?>
<svg xmlns="http://www.w3.org/2000/svg" xmlns:xlink="http://www.w3.org/1999/xlink" contentStyleType="text/css" height="62px" preserveAspectRatio="none" style="width:228px;height:62px;background:#FFFFFF;" version="1.1" viewBox="0 0 228 62" width="228px" zoomAndPan="magnify"><defs/><g><!--MD5=[610e12c2bba19ed7c56c5913ecbe2aa7]
class Mensch--><g id="elem_Mensch"><rect codeLine="3" fill="#F1F1F1" height="48" id="Mensch" rx="2.5" ry="2.5" style="stroke:#181818;stroke-width:0.5;" width="86" x="7" y="7"/><ellipse cx="22" cy="23" fill="#ADD1B2" rx="11" ry="11" style="stroke:#181818;stroke-width:1.0;"/><path d="M24.3438,18.6719 C23.4063,18.2344 22.8125,18.0938 21.9375,18.0938 C19.3125,18.0938 17.3125,20.1719 17.3125,22.8906 L17.3125,24.0156 C17.3125,26.5938 19.4219,28.4844 22.3125,28.4844 C23.5313,28.4844 24.6875,28.1875 25.4375,27.6406 C26.0156,27.2344 26.3438,26.7813 26.3438,26.3906 C26.3438,25.9375 25.9531,25.5469 25.4844,25.5469 C25.2656,25.5469 25.0625,25.625 24.875,25.8125 C24.4219,26.2969 24.4219,26.2969 24.2344,26.3906 C23.8125,26.6563 23.125,26.7813 22.3594,26.7813 C20.3125,26.7813 19.0156,25.6875 19.0156,23.9844 L19.0156,22.8906 C19.0156,21.1094 20.2656,19.7969 22,19.7969 C22.5781,19.7969 23.1875,19.9531 23.6563,20.2031 C24.1406,20.4844 24.3125,20.7031 24.4063,21.1094 C24.4688,21.5156 24.5,21.6406 24.6406,21.7656 C24.7813,21.9063 25.0156,22.0156 25.2344,22.0156 C25.5,22.0156 25.7656,21.875 25.9375,21.6563 C26.0469,21.5 26.0781,21.3125 26.0781,20.8906 L26.0781,19.4688 C26.0781,19.0313 26.0625,18.9063 25.9688,18.75 C25.8125,18.4844 25.5313,18.3438 25.2344,18.3438 C24.9375,18.3438 24.7344,18.4375 24.5156,18.75 L24.3438,18.6719 Z " fill="#000000"/><text fill="#000000" font-family="sans-serif" font-size="14" lengthAdjust="spacing" textLength="54" x="36" y="27.8467">Mensch</text><line style="stroke:#181818;stroke-width:0.5;" x1="8" x2="92" y1="39" y2="39"/><line style="stroke:#181818;stroke-width:0.5;" x1="8" x2="92" y1="47" y2="47"/></g><!--MD5=[5faf38ed9e2b5645e51abc3e8dd1a943]
class Hund--><g id="elem_Hund"><rect codeLine="4" fill="#F1F1F1" height="48" id="Hund" rx="2.5" ry="2.5" style="stroke:#181818;stroke-width:0.5;" width="68" x="153" y="7"/><ellipse cx="168" cy="23" fill="#ADD1B2" rx="11" ry="11" style="stroke:#181818;stroke-width:1.0;"/><path d="M170.3438,18.6719 C169.4063,18.2344 168.8125,18.0938 167.9375,18.0938 C165.3125,18.0938 163.3125,20.1719 163.3125,22.8906 L163.3125,24.0156 C163.3125,26.5938 165.4219,28.4844 168.3125,28.4844 C169.5313,28.4844 170.6875,28.1875 171.4375,27.6406 C172.0156,27.2344 172.3438,26.7813 172.3438,26.3906 C172.3438,25.9375 171.9531,25.5469 171.4844,25.5469 C171.2656,25.5469 171.0625,25.625 170.875,25.8125 C170.4219,26.2969 170.4219,26.2969 170.2344,26.3906 C169.8125,26.6563 169.125,26.7813 168.3594,26.7813 C166.3125,26.7813 165.0156,25.6875 165.0156,23.9844 L165.0156,22.8906 C165.0156,21.1094 166.2656,19.7969 168,19.7969 C168.5781,19.7969 169.1875,19.9531 169.6563,20.2031 C170.1406,20.4844 170.3125,20.7031 170.4063,21.1094 C170.4688,21.5156 170.5,21.6406 170.6406,21.7656 C170.7813,21.9063 171.0156,22.0156 171.2344,22.0156 C171.5,22.0156 171.7656,21.875 171.9375,21.6563 C172.0469,21.5 172.0781,21.3125 172.0781,20.8906 L172.0781,19.4688 C172.0781,19.0313 172.0625,18.9063 171.9688,18.75 C171.8125,18.4844 171.5313,18.3438 171.2344,18.3438 C170.9375,18.3438 170.7344,18.4375 170.5156,18.75 L170.3438,18.6719 Z " fill="#000000"/><text fill="#000000" font-family="sans-serif" font-size="14" lengthAdjust="spacing" textLength="36" x="182" y="27.8467">Hund</text><line style="stroke:#181818;stroke-width:0.5;" x1="154" x2="220" y1="39" y2="39"/><line style="stroke:#181818;stroke-width:0.5;" x1="154" x2="220" y1="47" y2="47"/></g><!--MD5=[7561d6d4374e81bc5a87d82cc4d7a5fc]
reverse link Mensch to Hund--><g id="link_Mensch_Hund"><path codeLine="6" d="M106.7776,31 C122.417,31 138.923,31 152.797,31 " fill="none" id="Mensch-backto-Hund" style="stroke:#181818;stroke-width:1.0;"/><polygon fill="none" points="93.3444,31,99.3444,35,105.3444,31,99.3444,27,93.3444,31" style="stroke:#181818;stroke-width:1.0;"/><text fill="#000000" font-family="sans-serif" font-size="13" lengthAdjust="spacing" textLength="8" x="100.8899" y="44.2728">1</text><text fill="#000000" font-family="sans-serif" font-size="13" lengthAdjust="spacing" textLength="8" x="136.9176" y="44.6275">2</text></g><!--MD5=[791b769798308701520b1ce3b812c4cd]
@startuml
left to right direction

class Mensch
class Hund

Mensch "1" o- - "2" Hund
@enduml

PlantUML version 1.2022.14beta7(Unknown compile time)
(GPL source distribution)
Java Runtime: Java(TM) SE Runtime Environment
JVM: Java HotSpot(TM) 64-Bit Server VM
Default Encoding: UTF-8
Language: en
Country: US
--></g></svg>