<?xml version="1.0" encoding="UTF-8" standalone="no"?>
<svg xmlns="http://www.w3.org/2000/svg" xmlns:xlink="http://www.w3.org/1999/xlink" contentStyleType="text/css" height="170px" preserveAspectRatio="none" style="width:199px;height:170px;background:#FFFFFF;" version="1.1" viewBox="0 0 199 170" width="199px" zoomAndPan="magnify"><defs/><g><!--MD5=[ada165f1fe7781cf6e85ac90470ed7b1]
class Vater--><g id="elem_Vater"><rect codeLine="1" fill="#F1F1F1" height="48" id="Vater" rx="2.5" ry="2.5" style="stroke:#181818;stroke-width:0.5;" width="72" x="60" y="7"/><ellipse cx="75" cy="23" fill="#ADD1B2" rx="11" ry="11" style="stroke:#181818;stroke-width:1.0;"/><path d="M77.3438,18.6719 C76.4063,18.2344 75.8125,18.0938 74.9375,18.0938 C72.3125,18.0938 70.3125,20.1719 70.3125,22.8906 L70.3125,24.0156 C70.3125,26.5938 72.4219,28.4844 75.3125,28.4844 C76.5313,28.4844 77.6875,28.1875 78.4375,27.6406 C79.0156,27.2344 79.3438,26.7813 79.3438,26.3906 C79.3438,25.9375 78.9531,25.5469 78.4844,25.5469 C78.2656,25.5469 78.0625,25.625 77.875,25.8125 C77.4219,26.2969 77.4219,26.2969 77.2344,26.3906 C76.8125,26.6563 76.125,26.7813 75.3594,26.7813 C73.3125,26.7813 72.0156,25.6875 72.0156,23.9844 L72.0156,22.8906 C72.0156,21.1094 73.2656,19.7969 75,19.7969 C75.5781,19.7969 76.1875,19.9531 76.6563,20.2031 C77.1406,20.4844 77.3125,20.7031 77.4063,21.1094 C77.4688,21.5156 77.5,21.6406 77.6406,21.7656 C77.7813,21.9063 78.0156,22.0156 78.2344,22.0156 C78.5,22.0156 78.7656,21.875 78.9375,21.6563 C79.0469,21.5 79.0781,21.3125 79.0781,20.8906 L79.0781,19.4688 C79.0781,19.0313 79.0625,18.9063 78.9688,18.75 C78.8125,18.4844 78.5313,18.3438 78.2344,18.3438 C77.9375,18.3438 77.7344,18.4375 77.5156,18.75 L77.3438,18.6719 Z " fill="#000000"/><text fill="#000000" font-family="sans-serif" font-size="14" lengthAdjust="spacing" textLength="40" x="89" y="27.8467">Vater</text><line style="stroke:#181818;stroke-width:0.5;" x1="61" x2="131" y1="39" y2="39"/><line style="stroke:#181818;stroke-width:0.5;" x1="61" x2="131" y1="47" y2="47"/></g><!--MD5=[08f2ca03ef8f953a098c410b52d3e463]
class Sohn--><g id="elem_Sohn"><rect codeLine="2" fill="#F1F1F1" height="48" id="Sohn" rx="2.5" ry="2.5" style="stroke:#181818;stroke-width:0.5;" width="68" x="7" y="115"/><ellipse cx="22" cy="131" fill="#ADD1B2" rx="11" ry="11" style="stroke:#181818;stroke-width:1.0;"/><path d="M24.3438,126.6719 C23.4063,126.2344 22.8125,126.0938 21.9375,126.0938 C19.3125,126.0938 17.3125,128.1719 17.3125,130.8906 L17.3125,132.0156 C17.3125,134.5938 19.4219,136.4844 22.3125,136.4844 C23.5313,136.4844 24.6875,136.1875 25.4375,135.6406 C26.0156,135.2344 26.3438,134.7813 26.3438,134.3906 C26.3438,133.9375 25.9531,133.5469 25.4844,133.5469 C25.2656,133.5469 25.0625,133.625 24.875,133.8125 C24.4219,134.2969 24.4219,134.2969 24.2344,134.3906 C23.8125,134.6563 23.125,134.7813 22.3594,134.7813 C20.3125,134.7813 19.0156,133.6875 19.0156,131.9844 L19.0156,130.8906 C19.0156,129.1094 20.2656,127.7969 22,127.7969 C22.5781,127.7969 23.1875,127.9531 23.6563,128.2031 C24.1406,128.4844 24.3125,128.7031 24.4063,129.1094 C24.4688,129.5156 24.5,129.6406 24.6406,129.7656 C24.7813,129.9063 25.0156,130.0156 25.2344,130.0156 C25.5,130.0156 25.7656,129.875 25.9375,129.6563 C26.0469,129.5 26.0781,129.3125 26.0781,128.8906 L26.0781,127.4688 C26.0781,127.0313 26.0625,126.9063 25.9688,126.75 C25.8125,126.4844 25.5313,126.3438 25.2344,126.3438 C24.9375,126.3438 24.7344,126.4375 24.5156,126.75 L24.3438,126.6719 Z " fill="#000000"/><text fill="#000000" font-family="sans-serif" font-size="14" lengthAdjust="spacing" textLength="36" x="36" y="135.8467">Sohn</text><line style="stroke:#181818;stroke-width:0.5;" x1="8" x2="74" y1="147" y2="147"/><line style="stroke:#181818;stroke-width:0.5;" x1="8" x2="74" y1="155" y2="155"/></g><!--MD5=[2e8a3fb8143aed1b460ece055f7d4aa3]
class Tocher--><g id="elem_Tocher"><rect codeLine="3" fill="#F1F1F1" height="48" id="Tocher" rx="2.5" ry="2.5" style="stroke:#181818;stroke-width:0.5;" width="82" x="110" y="115"/><ellipse cx="125" cy="131" fill="#ADD1B2" rx="11" ry="11" style="stroke:#181818;stroke-width:1.0;"/><path d="M127.3438,126.6719 C126.4063,126.2344 125.8125,126.0938 124.9375,126.0938 C122.3125,126.0938 120.3125,128.1719 120.3125,130.8906 L120.3125,132.0156 C120.3125,134.5938 122.4219,136.4844 125.3125,136.4844 C126.5313,136.4844 127.6875,136.1875 128.4375,135.6406 C129.0156,135.2344 129.3438,134.7813 129.3438,134.3906 C129.3438,133.9375 128.9531,133.5469 128.4844,133.5469 C128.2656,133.5469 128.0625,133.625 127.875,133.8125 C127.4219,134.2969 127.4219,134.2969 127.2344,134.3906 C126.8125,134.6563 126.125,134.7813 125.3594,134.7813 C123.3125,134.7813 122.0156,133.6875 122.0156,131.9844 L122.0156,130.8906 C122.0156,129.1094 123.2656,127.7969 125,127.7969 C125.5781,127.7969 126.1875,127.9531 126.6563,128.2031 C127.1406,128.4844 127.3125,128.7031 127.4063,129.1094 C127.4688,129.5156 127.5,129.6406 127.6406,129.7656 C127.7813,129.9063 128.0156,130.0156 128.2344,130.0156 C128.5,130.0156 128.7656,129.875 128.9375,129.6563 C129.0469,129.5 129.0781,129.3125 129.0781,128.8906 L129.0781,127.4688 C129.0781,127.0313 129.0625,126.9063 128.9688,126.75 C128.8125,126.4844 128.5313,126.3438 128.2344,126.3438 C127.9375,126.3438 127.7344,126.4375 127.5156,126.75 L127.3438,126.6719 Z " fill="#000000"/><text fill="#000000" font-family="sans-serif" font-size="14" lengthAdjust="spacing" textLength="50" x="139" y="135.8467">Tocher</text><line style="stroke:#181818;stroke-width:0.5;" x1="111" x2="191" y1="147" y2="147"/><line style="stroke:#181818;stroke-width:0.5;" x1="111" x2="191" y1="155" y2="155"/></g><!--MD5=[be2788570c58f8622be10dcea7333a84]
reverse link Vater to Sohn--><g id="link_Vater_Sohn"><path d="M74.6778,73.0936 C67.3607,87.1958 59.4282,102.4838 53.1008,114.6784 " fill="none" id="Vater-backto-Sohn" style="stroke:#181818;stroke-width:1.0;"/><polygon fill="none" points="68.6411,69.529,84.0658,55,81.0679,75.9769,68.6411,69.529" style="stroke:#181818;stroke-width:1.0;"/></g><!--MD5=[b7c5d3d4d6fc290cc15149efe7f0314e]
reverse link Vater to Tocher--><g id="link_Vater_Tocher"><path d="M117.322,73.0936 C124.639,87.1958 132.572,102.4838 138.899,114.6784 " fill="none" id="Vater-backto-Tocher" style="stroke:#181818;stroke-width:1.0;"/><polygon fill="none" points="110.932,75.9769,107.934,55,123.359,69.529,110.932,75.9769" style="stroke:#181818;stroke-width:1.0;"/></g><!--MD5=[40e96c9139a713feef14db3adbec12a3]
@startuml
class Vater
class Sohn extends Vater
class Tocher extends Vater
@enduml

PlantUML version 1.2022.14beta7(Unknown compile time)
(GPL source distribution)
Java Runtime: Java(TM) SE Runtime Environment
JVM: Java HotSpot(TM) 64-Bit Server VM
Default Encoding: UTF-8
Language: en
Country: US
--></g></svg>