<?xml version="1.0" encoding="UTF-8" standalone="no"?>
<svg xmlns="http://www.w3.org/2000/svg" xmlns:xlink="http://www.w3.org/1999/xlink" contentStyleType="text/css" height="383px" preserveAspectRatio="none" style="width:350px;height:383px;background:#FFFFFF;" version="1.1" viewBox="0 0 350 383" width="350px" zoomAndPan="magnify"><defs/><g><ellipse cx="104" cy="16" fill="#222222" rx="10" ry="10" style="stroke:none;stroke-width:1.0;"/><rect fill="#F1F1F1" height="40" rx="12.5" ry="12.5" style="stroke:#181818;stroke-width:0.5;" width="50" x="79" y="103"/><text fill="#000000" font-family="sans-serif" font-size="14" lengthAdjust="spacing" textLength="35" x="86.5" y="127.8467">ledig</text><rect fill="#F1F1F1" height="40" rx="12.5" ry="12.5" style="stroke:#181818;stroke-width:0.5;" width="92" x="7" y="220"/><text fill="#000000" font-family="sans-serif" font-size="14" lengthAdjust="spacing" textLength="82" x="12" y="244.8467">verheiratet</text><rect fill="#F1F1F1" height="40" rx="12.5" ry="12.5" style="stroke:#181818;stroke-width:0.5;" width="82" x="211" y="220"/><text fill="#000000" font-family="sans-serif" font-size="14" lengthAdjust="spacing" textLength="72" x="216" y="244.8467">verwitwet</text><rect fill="#F1F1F1" height="40" rx="12.5" ry="12.5" style="stroke:#181818;stroke-width:0.5;" width="92" x="104" y="337"/><text fill="#000000" font-family="sans-serif" font-size="14" lengthAdjust="spacing" textLength="82" x="109" y="361.8467">geschieden</text><ellipse cx="205" cy="123" fill="none" rx="10" ry="10" style="stroke:#222222;stroke-width:1.0;"/><ellipse cx="205.5" cy="123.5" fill="#222222" rx="6" ry="6" style="stroke:none;stroke-width:1.0;"/><!--MD5=[e3098ffd974c64e7d89279bf3059d6e5]
link *start to ledig--><g id="link_*start_ledig"><path d="M104,26.318 C104,42.116 104,74.653 104,97.376 " fill="none" id="*start-to-ledig" style="stroke:#181818;stroke-width:1.0;"/><polygon fill="#181818" points="104,102.638,108,93.638,104,97.638,100,93.638,104,102.638" style="stroke:#181818;stroke-width:1.0;"/><text fill="#000000" font-family="sans-serif" font-size="13" lengthAdjust="spacing" textLength="44" x="105" y="69.0669">Geburt</text></g><!--MD5=[f11f87903ca90fef2cf5e924be3c7348]
link ledig to verheiratet--><g id="link_ledig_verheiratet"><path d="M83.6713,143.245 C75.9901,151.652 67.9236,162.079 63,173 C57.1651,185.942 54.6246,201.611 53.5617,214.433 " fill="none" id="ledig-to-verheiratet" style="stroke:#181818;stroke-width:1.0;"/><polygon fill="#181818" points="53.1914,219.738,57.8091,211.0388,53.54,214.7502,49.8286,210.481,53.1914,219.738" style="stroke:#181818;stroke-width:1.0;"/><text fill="#000000" font-family="sans-serif" font-size="13" lengthAdjust="spacing" textLength="55" x="64" y="186.0669">Hochzeit</text></g><!--MD5=[3dc54cc7097dcae2f93ad81b77fec22f]
link verheiratet to verwitwet--><g id="link_verheiratet_verwitwet"><path d="M99.1548,240 C131.197,240 173.718,240 205.775,240 " fill="none" id="verheiratet-to-verwitwet" style="stroke:#181818;stroke-width:1.0;"/><polygon fill="#181818" points="210.827,240,201.827,236,205.827,240,201.827,244,210.827,240" style="stroke:#181818;stroke-width:1.0;"/><text fill="#000000" font-family="sans-serif" font-size="13" lengthAdjust="spacing" textLength="75" x="117.5" y="233.0669">Tod Partner</text></g><!--MD5=[b1c67ec1b7bfda61f151bb745fadd016]
reverse link verheiratet to verwitwet--><g id="link_verheiratet_verwitwet"><path d="M104.3469,255.822 C111.718,257.551 119.258,259.032 126.5,260 C151.61,263.355 158.422,263.586 183.5,260 C192.453,258.72 201.87,256.543 210.758,254.086 " fill="none" id="verheiratet-backto-verwitwet" style="stroke:#181818;stroke-width:1.0;"/><polygon fill="#181818" points="99.2762,254.589,107.0764,260.602,104.1347,255.7703,108.9664,252.8285,99.2762,254.589" style="stroke:#181818;stroke-width:1.0;"/><text fill="#000000" font-family="sans-serif" font-size="13" lengthAdjust="spacing" textLength="55" x="127.5" y="256.0669">Hochzeit</text></g><!--MD5=[c532225cd10b43030a1cb002f8230c40]
link verheiratet to geschieden--><g id="link_verheiratet_geschieden"><path d="M79.2371,260.058 C89.8359,268.512 101.7271,279.0246 111,290 C121.863,302.8575 131.511,319.1189 138.493,332.2831 " fill="none" id="verheiratet-to-geschieden" style="stroke:#181818;stroke-width:1.0;"/><polygon fill="#181818" points="140.943,336.9809,140.3297,327.1512,138.6317,332.5472,133.2357,330.8492,140.943,336.9809" style="stroke:#181818;stroke-width:1.0;"/><text fill="#000000" font-family="sans-serif" font-size="13" lengthAdjust="spacing" textLength="66" x="125" y="303.0669">Scheidung</text></g><!--MD5=[f3758053318a25098a6c7bfbfdb83c18]
reverse link verheiratet to geschieden--><g id="link_verheiratet_geschieden"><path d="M43.4228,265.212 C39.8039,278.4976 38.2086,294.7162 46,307 C58.8288,327.2257 82.4821,339.2564 103.9932,346.3308 " fill="none" id="verheiratet-backto-geschieden" style="stroke:#181818;stroke-width:1.0;"/><polygon fill="#181818" points="44.9537,260.093,38.5444,267.571,43.5222,264.8837,46.2095,269.8615,44.9537,260.093" style="stroke:#181818;stroke-width:1.0;"/><text fill="#000000" font-family="sans-serif" font-size="13" lengthAdjust="spacing" textLength="55" x="47" y="303.0669">Hochzeit</text></g><!--MD5=[91feaffc75326ab0e3d927e2d1881464]
link ledig to *end--><g id="link_ledig_*end"><path d="M129.226,123 C148.334,123 173.946,123 189.958,123 " fill="none" id="ledig-to-*end" style="stroke:#181818;stroke-width:1.0;"/><polygon fill="#181818" points="194.997,123,185.997,119,189.997,123,185.997,127,194.997,123" style="stroke:#181818;stroke-width:1.0;"/><text fill="#000000" font-family="sans-serif" font-size="13" lengthAdjust="spacing" textLength="24" x="150" y="116.0669">Tod</text></g><!--MD5=[f465475aca2395e7a9d90008104323ab]
reverse link *end to verheiratet--><g id="link_*end_verheiratet"><path d="M193.562,133.805 C178.08,146.963 149.461,170.889 124,190 C110.345,200.25 94.772,211.087 81.697,219.957 " fill="none" id="*end-backto-verheiratet" style="stroke:#181818;stroke-width:1.0;"/><polygon fill="#181818" points="197.566,130.392,188.1213,133.1846,193.7603,133.6349,193.31,139.2738,197.566,130.392" style="stroke:#181818;stroke-width:1.0;"/><text fill="#000000" font-family="sans-serif" font-size="13" lengthAdjust="spacing" textLength="24" x="146" y="186.0669">Tod</text></g><!--MD5=[c25dca37e59b991ac4a468fdc4497431]
reverse link *end to verwitwet--><g id="link_*end_verwitwet"><path d="M210.472,137.39 C218.772,157.698 234.583,196.383 244.12,219.719 " fill="none" id="*end-backto-verwitwet" style="stroke:#181818;stroke-width:1.0;"/><polygon fill="#181818" points="208.533,132.644,208.2347,142.4883,210.4244,137.2725,215.6403,139.4621,208.533,132.644" style="stroke:#181818;stroke-width:1.0;"/><text fill="#000000" font-family="sans-serif" font-size="13" lengthAdjust="spacing" textLength="24" x="233" y="186.0669">Tod</text></g><!--MD5=[4ecd41d1b39ab53d5f65410321e05eb7]
reverse link *end to geschieden--><g id="link_*end_geschieden"><path d="M218.614,131.166 C253.557,150.546 341.58,206.163 311,260 C286.569,303.0115 234.391,328.7906 196.029,342.6375 " fill="none" id="*end-backto-geschieden" style="stroke:#181818;stroke-width:1.0;"/><polygon fill="#181818" points="213.865,128.575,219.849,136.3975,218.254,130.9702,223.6813,129.3751,213.865,128.575" style="stroke:#181818;stroke-width:1.0;"/><text fill="#000000" font-family="sans-serif" font-size="13" lengthAdjust="spacing" textLength="24" x="318" y="244.5669">Tod</text></g><!--MD5=[7962c9a0639657c27fb3c3e497f89085]
@startuml
hide empty description
skinparam classAttributeIconSize 0

[*] - -> ledig : Geburt
ledig -right- -> verheiratet : Hochzeit
verheiratet -right- -> verwitwet : Tod Partner
verwitwet -left- -> verheiratet : Hochzeit
verheiratet -down-> geschieden : Scheidung
geschieden -up-> verheiratet : Hochzeit 
ledig -> [*] : Tod
verheiratet -up-> [*] : Tod
verwitwet -up-> [*] : Tod
geschieden -up-> [*] : Tod
@enduml

PlantUML version 1.2022.14beta7(Unknown compile time)
(GPL source distribution)
Java Runtime: Java(TM) SE Runtime Environment
JVM: Java HotSpot(TM) 64-Bit Server VM
Default Encoding: UTF-8
Language: en
Country: US
--></g></svg>